# xmcd CD database file
#
# Track frame offsets:
#	150
#	35117
#	52653
#	64437
#	79508
#	96974
#	115076
#	134098
#	154201
#	167455
#	179287
#	191692
#	206069
#	224920
#	247393
#	267970
#	284147
#	301026
#	318284
#	335962
#
# Disc length: 4711 seconds
#
# Revision: 1
# Processed by: cddbd v1.5.2PL0 Copyright (c) Steve Scherf et al.
# Submitted via: CDex 1.51
#
DISCID=40126514
DTITLE=Various Artist - ZM-UKPP-Disc-5
DYEAR=1900
DGENRE=Blues
TTITLE0=Meat Loaf - Paradise By The Dashboard Light
TTITLE1=Fairground Attraction - Perfect
TTITLE2=Sandie Shaw - Puppet On A String
TTITLE3=UB40 - Red Red Wine
TTITLE4=Amy Winehouse - Rehab
TTITLE5=Frankie Goes To Hollywood - Relax
TTITLE6=Take That - Relight My Fire
TTITLE7=Robbie William - Rock Dj
TTITLE8=Dion - Runaround Sue
TTITLE9=Del Shannon - Runaway
TTITLE10=Drifters The - Saturday Night At The Movies
TTITLE11=Lulu - Shout
TTITLE12=James - Sit Down
TTITLE13=Labi Siffre - So Strong (something inside)
TTITLE14=Bee Gees The - Stayin' Alive
TTITLE15=Stealers Wheel - Stuck In The Middle With You
TTITLE16=John Travolta and Olivia Newton -John - Summer Nights
TTITLE17=Bryan Adams - Summer Of 69
TTITLE18=Elvis Presley - Suspicious Minds
TTITLE19=Neil Diamond - Sweet Caroline
EXTD=
EXTT0=
EXTT1=
EXTT2=
EXTT3=
EXTT4=
EXTT5=
EXTT6=
EXTT7=
EXTT8=
EXTT9=
EXTT10=
EXTT11=
EXTT12=
EXTT13=
EXTT14=
EXTT15=
EXTT16=
EXTT17=
EXTT18=
EXTT19=
PLAYORDER=
